<svg width="368" height="34" viewBox="0 0 368 34" fill="none" xmlns="http://www.w3.org/2000/svg">
<path d="M141.868 22.7428L132.85 7.17994H137.123L143.754 18.7101L149.176 7.17994H153.037L145.463 22.9132C143.783 26.3779 142.222 27.2866 140.129 27.2866C139.186 27.2866 138.273 27.0596 137.742 26.8324V23.1403C138.273 23.6234 139.127 23.9356 139.982 23.9356C140.748 23.9356 141.396 23.6515 141.868 22.7428Z" fill="white"/>
<path d="M171.663 18.4545H160.376V27.0596H156.692V7.17996H160.376V15.1886H171.663V7.17996H175.347V27.0596H171.663V18.4545Z" fill="white"/>
<path d="M184.984 22.0328L196.242 7.17983H200.25V27.0595H196.566V11.9795L185.25 27.0595H181.301V7.17983H184.984V22.0328Z" fill="white"/>
<path d="M214.898 23.7937C217.727 23.7937 219.024 22.9131 219.024 21.0105C219.024 19.1076 217.55 18.3693 214.957 18.3693H209.888V23.7937H214.898ZM214.633 15.5862C216.961 15.5862 218.434 14.5922 218.434 12.8882C218.434 11.2978 217.344 10.4459 214.721 10.4459H209.888V15.5862H214.633ZM206.204 27.0595V7.17984H215.163C219.76 7.17984 222.118 8.82706 222.118 12.1215C222.118 14.3934 221.175 15.8986 219.053 16.6937C221.588 17.1198 222.737 18.6818 222.737 21.2661C222.737 25.3839 219.672 27.0595 214.662 27.0595H206.204Z" fill="white"/>
<path d="M240.685 18.4545H231.195V23.7938H242.099V27.0596H227.512V7.17996H241.776V10.4458H231.195V15.1886H240.685V18.4545Z" fill="white"/>
<path d="M250.764 10.4458V17.6024H254.212C257.631 17.6024 259.399 16.5232 259.399 13.8252C259.399 11.3831 257.867 10.4458 254.271 10.4458H250.764ZM250.764 20.8684V27.0596H247.08V7.17998H253.947C260.46 7.17998 263.23 9.42325 263.23 13.9105C263.23 18.5397 259.989 20.8684 253.947 20.8684H250.764Z" fill="white"/>
<path d="M284.921 24.8727C283.889 26.0655 281.178 27.3718 277.612 27.3718C270.893 27.3437 266.413 23.5095 266.413 17.0913C266.413 11.0989 270.834 6.86751 277.671 6.86751C280.913 6.86751 283.3 7.83304 284.508 8.65676V13.5982C283.27 11.8374 280.766 10.1336 277.671 10.1336C273.162 10.1336 270.392 12.9449 270.392 17.1197C270.392 20.982 272.838 24.0208 277.583 24.106C281.178 24.106 283.713 22.5156 284.921 20.4991V24.8727Z" fill="white"/>
<path d="M292.996 22.0328L304.254 7.17983H308.262V27.0595H304.578V11.9795L293.262 27.0595H289.312V7.17983H292.996V22.0328Z" fill="white"/>
<path d="M329.422 10.4458H322.467V27.0596H318.784V10.4458H311.947V7.17998H329.422V10.4458Z" fill="white"/>
<path d="M346.28 18.4545H336.79V23.7938H347.694V27.0596H333.107V7.17996H347.37V10.4458H336.79V15.1886H346.28V18.4545Z" fill="white"/>
<path d="M368 10.4458H361.045V27.0596H357.361V10.4458H350.524V7.17998H368V10.4458Z" fill="white"/>
<path d="M99.7332 10.3374L104.388 7.03119H88.8088V26.8881H104.388V23.5819H93.255V18.4984H102.752V15.1919H93.255V10.3374H99.7332Z" fill="white"/>
<path d="M76.275 23.5818H71.6386V18.0777H76.275C79.0969 18.0777 80.4115 18.9982 80.4115 20.8299C80.4115 22.7008 79.0196 23.5818 76.275 23.5818ZM77.0491 14.7715H71.6386V10.3374H80.2757L84.9307 7.03112H67.1924V26.8881H76.4759C81.6828 26.8881 84.6691 24.6146 84.6691 20.6503C84.6691 16.8594 81.963 14.7715 77.0491 14.7715Z" fill="white"/>
<path d="M116.915 17.9572H112.974V10.3374H116.915C119.764 10.3374 121.333 11.6906 121.333 14.1473C121.333 16.6043 119.764 17.9572 116.915 17.9572ZM117.01 7.03162H108.528V26.8881H112.974V21.2634H117.01C122.423 21.2634 125.786 18.5209 125.786 14.1375C125.786 9.75448 122.423 7.03162 117.01 7.03162Z" fill="white"/>
<path d="M59.5606 22.5886C58.4203 23.1947 57.093 23.5153 55.7222 23.5153C51.7138 23.5153 48.8044 20.7581 48.8044 16.9594C48.8044 13.1606 51.7138 10.4032 55.7222 10.4032C57.2386 10.4032 58.5976 10.814 59.7662 11.6229L62.9552 9.35796L62.7445 9.17967C60.8824 7.60346 58.3945 6.77034 55.5504 6.77034C52.4645 6.77034 49.6644 7.77301 47.6651 9.59372C45.6542 11.4254 44.5466 14.0023 44.5466 16.8499C44.5466 19.7106 45.6501 22.3254 47.654 24.2131C49.664 26.1064 52.458 27.149 55.5218 27.149C58.7269 27.149 61.5256 26.0719 63.4229 24.1126C61.9589 23.0728 60.5457 22.0693 60.5457 22.0693L59.5606 22.5886Z" fill="white"/>
<path d="M34.2439 16.9595C34.2439 15.9502 34.1494 14.9624 33.9696 14.0033L30.2841 16.6208C30.287 16.7333 30.2888 16.8463 30.2888 16.9595C30.2888 23.9559 24.382 29.6481 17.1218 29.6481C9.86168 29.6481 3.9551 23.9559 3.9551 16.9595C3.9551 9.96308 9.86168 4.2711 17.1218 4.2711C19.8735 4.2711 22.4301 5.08914 24.545 6.48531L27.8753 4.12012C24.9357 1.83118 21.1953 0.459473 17.1218 0.459473C7.66579 0.459473 0 7.84675 0 16.9595C0 26.0722 7.66579 33.4595 17.1218 33.4595C26.5781 33.4595 34.2439 26.0722 34.2439 16.9595Z" fill="white"/>
<path d="M30.6709 6.8717C31.4796 7.87895 32.1707 8.97841 32.7228 10.1515L17.1219 21.2316L10.604 17.2936V12.5567L17.1219 16.4944L30.6709 6.8717Z" fill="white"/>
</svg>
